<?xml version="1.0" encoding="iso-8859-1"?>
<!-- Uploaded to: SVG Repo, www.svgrepo.com, Generator: SVG Repo Mixer Tools -->
<svg height="800px" width="800px" version="1.1" id="Layer_1" xmlns="http://www.w3.org/2000/svg" xmlns:xlink="http://www.w3.org/1999/xlink" 
	 viewBox="0 0 512 512" xml:space="preserve">
<path style="fill:#00384D;" d="M310.624,0H64v512h384V137.376L310.624,0z M320,54.624L393.376,128H320V54.624z M96,480V32h192v128
	h128v320H96z"/>
<polygon style="fill:#71C5EE;" points="384,448 128,448 128,64 288,64 288,160 384,160 "/>
<path style="fill:#00384D;" d="M352,240H160v160h192V240z M320,304h-64v-32h64V304z M224,272v32h-32v-32H224z M192,336h32v32h-32
	V336z M256,368v-32h64v32H256z"/>
</svg>